<svg width="35" height="35" viewBox="0 0 35 35" fill="none" xmlns="http://www.w3.org/2000/svg">
<rect width="35" height="35" rx="12" fill="#83BF8B"/>
<path d="M17 7.375C14.9975 7.375 13.0399 7.96882 11.3749 9.08137C9.70981 10.1939 8.41206 11.7752 7.64572 13.6253C6.87939 15.4754 6.67888 17.5112 7.06955 19.4753C7.46023 21.4393 8.42454 23.2435 9.84055 24.6595C11.2566 26.0755 13.0607 27.0398 15.0247 27.4305C16.9888 27.8211 19.0246 27.6206 20.8747 26.8543C22.7248 26.0879 24.3061 24.7902 25.4186 23.1251C26.5312 21.4601 27.125 19.5025 27.125 17.5C27.122 14.8156 26.0543 12.242 24.1562 10.3438C22.258 8.44567 19.6844 7.37798 17 7.375ZM17 25.375C15.4425 25.375 13.9199 24.9131 12.6249 24.0478C11.3299 23.1825 10.3205 21.9526 9.72445 20.5136C9.12841 19.0747 8.97246 17.4913 9.27632 15.9637C9.58018 14.4361 10.3302 13.0329 11.4315 11.9315C12.5329 10.8302 13.9361 10.0802 15.4637 9.77632C16.9913 9.47246 18.5747 9.62841 20.0136 10.2244C21.4526 10.8205 22.6825 11.8298 23.5478 13.1249C24.4131 14.4199 24.875 15.9425 24.875 17.5C24.8728 19.5879 24.0424 21.5896 22.566 23.066C21.0896 24.5424 19.0879 25.3728 17 25.375ZM20.3066 12.7188L15.0566 14.9688C14.7912 15.0825 14.5797 15.294 14.4659 15.5594L12.2159 20.8094C12.129 21.0158 12.1056 21.2436 12.1488 21.4634C12.1921 21.6832 12.3 21.8851 12.4587 22.0432C12.6174 22.2013 12.8197 22.3084 13.0397 22.3508C13.2597 22.3933 13.4873 22.369 13.6934 22.2812L18.9434 20.0312C19.2088 19.9175 19.4203 19.706 19.5341 19.4406L21.7841 14.1906C21.8711 13.9842 21.8944 13.7564 21.8512 13.5366C21.8079 13.3168 21.7 13.1149 21.5413 12.9568C21.3826 12.7987 21.1803 12.6916 20.9603 12.6492C20.7403 12.6067 20.5127 12.631 20.3066 12.7188ZM17.6431 18.1459L15.3931 19.1106L16.3578 16.8606L18.6078 15.8959L17.6431 18.1459Z" fill="white"/>
</svg>
