<svg width="20" height="15" viewBox="0 0 20 15" fill="none" xmlns="http://www.w3.org/2000/svg">
<mask id="mask0_13_5307" style="mask-type:luminance" maskUnits="userSpaceOnUse" x="0" y="0" width="20" height="15">
<rect width="20" height="15" fill="white"/>
</mask>
<g mask="url(#mask0_13_5307)">
<path fill-rule="evenodd" clip-rule="evenodd" d="M0 0V15H20V0H0Z" fill="#FFB400"/>
<mask id="mask1_13_5307" style="mask-type:luminance" maskUnits="userSpaceOnUse" x="0" y="0" width="20" height="15">
<path fill-rule="evenodd" clip-rule="evenodd" d="M0 0V15H20V0H0Z" fill="white"/>
</mask>
<g mask="url(#mask1_13_5307)">
<path fill-rule="evenodd" clip-rule="evenodd" d="M0 0V3.75H20V0H0Z" fill="#C51918"/>
<path fill-rule="evenodd" clip-rule="evenodd" d="M0 11.25V15H20V11.25H0Z" fill="#C51918"/>
<rect x="3.12988" y="6.41992" width="0.7" height="3.64" fill="#F1F9FF"/>
<path d="M4.11035 6.13965H3.90039V6.41992H3.06055V6.13965H2.85059V5.79004H4.11035V6.13965Z" fill="#C88A02"/>
<path fill-rule="evenodd" clip-rule="evenodd" d="M3.90059 10.2697H4.11059V10.6197H2.85059V10.2697H3.06059V9.98975H3.90059V10.2697Z" fill="#C88A02"/>
<path fill-rule="evenodd" clip-rule="evenodd" d="M3.48023 5.85984C3.63257 5.85984 3.64805 5.80248 3.73792 5.71681C3.80771 5.65029 3.97023 5.56778 3.97023 5.47484C3.97023 5.26221 3.75085 5.08984 3.48023 5.08984C3.20961 5.08984 2.99023 5.26221 2.99023 5.47484C2.99023 5.57839 3.10216 5.64762 3.18679 5.71681C3.27595 5.78971 3.3414 5.85984 3.48023 5.85984Z" fill="#AD1619"/>
<path fill-rule="evenodd" clip-rule="evenodd" d="M2.85059 10.6196H4.11059V11.1796C4.11059 11.1796 3.95309 11.1096 3.79559 11.1096C3.63809 11.1096 3.48059 11.1796 3.48059 11.1796C3.48059 11.1796 3.32309 11.1096 3.16559 11.1096C3.00809 11.1096 2.85059 11.1796 2.85059 11.1796V10.6196Z" fill="#005BBF"/>
<mask id="mask2_13_5307" style="mask-type:luminance" maskUnits="userSpaceOnUse" x="2" y="10" width="3" height="2">
<path fill-rule="evenodd" clip-rule="evenodd" d="M2.85059 10.6196H4.11059V11.1796C4.11059 11.1796 3.95309 11.1096 3.79559 11.1096C3.63809 11.1096 3.48059 11.1796 3.48059 11.1796C3.48059 11.1796 3.32309 11.1096 3.16559 11.1096C3.00809 11.1096 2.85059 11.1796 2.85059 11.1796V10.6196Z" fill="white"/>
</mask>
<g mask="url(#mask2_13_5307)">
</g>
<rect x="9.99023" y="6.41992" width="0.7" height="3.64" fill="#F1F9FF"/>
<path d="M10.9707 6.13965H10.7607V6.41992H9.9209V6.13965H9.71094V5.79004H10.9707V6.13965Z" fill="#C88A02"/>
<path fill-rule="evenodd" clip-rule="evenodd" d="M10.76 10.2697H10.97V10.6197H9.70996V10.2697H9.91996V9.98975H10.76V10.2697Z" fill="#C88A02"/>
<path fill-rule="evenodd" clip-rule="evenodd" d="M10.3406 5.85984C10.4929 5.85984 10.5084 5.80248 10.5983 5.71681C10.6681 5.65029 10.8306 5.56778 10.8306 5.47484C10.8306 5.26221 10.6112 5.08984 10.3406 5.08984C10.07 5.08984 9.85059 5.26221 9.85059 5.47484C9.85059 5.57839 9.96251 5.64762 10.0471 5.71681C10.1363 5.78971 10.2017 5.85984 10.3406 5.85984Z" fill="#AD1619"/>
<path fill-rule="evenodd" clip-rule="evenodd" d="M9.71094 10.6196H10.9709V11.1796C10.9709 11.1796 10.8134 11.1096 10.6559 11.1096C10.4984 11.1096 10.3409 11.1796 10.3409 11.1796C10.3409 11.1796 10.1834 11.1096 10.0259 11.1096C9.86844 11.1096 9.71094 11.1796 9.71094 11.1796V10.6196Z" fill="#005BBF"/>
<mask id="mask3_13_5307" style="mask-type:luminance" maskUnits="userSpaceOnUse" x="9" y="10" width="2" height="2">
<path fill-rule="evenodd" clip-rule="evenodd" d="M9.71094 10.6196H10.9709V11.1796C10.9709 11.1796 10.8134 11.1096 10.6559 11.1096C10.4984 11.1096 10.3409 11.1796 10.3409 11.1796C10.3409 11.1796 10.1834 11.1096 10.0259 11.1096C9.86844 11.1096 9.71094 11.1796 9.71094 11.1796V10.6196Z" fill="white"/>
</mask>
<g mask="url(#mask3_13_5307)">
</g>
<path d="M2.74316 7.41943C3.21221 7.09674 4.46782 7.0677 5.01855 7.35205L4.76074 7.84912C4.49027 7.70988 3.87631 7.68394 3.44629 7.75537C3.51154 7.76676 3.58505 7.77864 3.66699 7.7915C3.7186 7.7996 3.89864 7.82734 3.91309 7.82959C4.08474 7.8563 4.20223 7.89059 4.28906 7.94971C4.46611 8.07045 4.49253 8.28832 4.36621 8.44873C4.31283 8.5164 4.24225 8.56719 4.13672 8.62842C4.10298 8.64798 4.06624 8.66788 4.01758 8.69385C4.00762 8.69916 3.92301 8.74458 3.89746 8.7583C3.79685 8.81233 3.73003 8.85137 3.68066 8.88721C3.60337 8.94342 3.52356 8.98956 3.43359 9.03271C3.38666 9.05521 3.25518 9.11315 3.24707 9.1167C3.24434 9.11794 3.24086 9.11856 3.23828 9.11963C3.28681 9.18536 3.31542 9.26674 3.31543 9.35986C3.31531 9.50746 3.24409 9.64656 3.11816 9.79932L2.68848 9.44482L2.64746 9.43213L2.62402 9.25342C2.58178 8.92268 2.72354 8.73943 3.01465 8.60693C3.02491 8.60232 3.15404 8.54573 3.19141 8.52783C3.25279 8.49838 3.3043 8.46943 3.35156 8.43506C3.39817 8.40118 3.44846 8.36849 3.50879 8.3335C3.14856 8.27562 2.95314 8.23274 2.80371 8.16846C2.44596 8.01432 2.39939 7.65625 2.74316 7.41943ZM8.73828 7.35205C9.28897 7.06772 10.5436 7.09681 11.0127 7.41943C11.3566 7.65624 11.3109 8.0143 10.9531 8.16846C10.8036 8.23287 10.6087 8.27555 10.248 8.3335C10.3085 8.36856 10.3586 8.40111 10.4053 8.43506C10.4525 8.46937 10.5032 8.49843 10.5645 8.52783C10.6019 8.54577 10.7328 8.60312 10.7412 8.60693C11.0326 8.73945 11.1741 8.9225 11.1318 9.25342L11.1094 9.43213L11.0684 9.44482L10.6387 9.79932C10.5126 9.64641 10.4415 9.50759 10.4414 9.35986C10.4414 9.26665 10.469 9.1854 10.5176 9.11963C10.5151 9.11854 10.5124 9.11789 10.5098 9.1167C10.5097 9.1167 10.3719 9.05601 10.3232 9.03271C10.2331 8.98952 10.1536 8.94349 10.0762 8.88721C10.0268 8.85128 9.96029 8.81249 9.85938 8.7583C9.83453 8.74496 9.74955 8.69934 9.73926 8.69385C9.69021 8.66768 9.65307 8.6481 9.61914 8.62842C9.51363 8.5672 9.44401 8.51635 9.39062 8.44873C9.26405 8.28822 9.2904 8.07047 9.46777 7.94971C9.55465 7.89063 9.67199 7.85629 9.84375 7.82959C9.85985 7.82709 10.039 7.79949 10.0898 7.7915C10.1719 7.77862 10.2452 7.76678 10.3105 7.75537C9.88019 7.68376 9.26543 7.71053 8.99512 7.8501L8.73828 7.35205Z" fill="#AD1619"/>
<path d="M3.70198 7.75L3.9086 7.79274V8.1007C3.68854 8.27629 3.12988 8.57223 3.12988 8.57223V7.75H3.70198Z" fill="#F1F9FF"/>
<path d="M10.1965 7.75L9.98984 7.79274V8.1007C10.2099 8.27629 10.7686 8.57223 10.7686 8.57223V7.75H10.1965Z" fill="#F1F9FF"/>
<path d="M6.95605 3.81836C7.34344 3.78072 7.72634 3.84633 8.10449 4.01367C8.4985 4.01369 8.87533 4.143 9.23535 4.40137V4.50391L8.5293 5.21289C8.38813 5.60398 8.13638 5.62428 7.94043 5.68945C7.87386 5.71097 6.9541 5.73633 6.9541 5.73633C6.95393 5.73595 6.95355 5.73532 6.95312 5.73438C5.57655 5.89256 5.3683 5.22628 5.36426 5.21289L4.6582 4.50391V4.40137C4.6582 4.40137 5.19805 4.01373 5.78906 4.01367C5.78906 4.01367 6.3753 3.7606 6.95703 3.81738L6.95605 3.81836ZM6.94336 3.99121C6.94707 3.95963 6.94946 3.92715 6.95117 3.89355C6.94898 3.92018 6.94631 3.95309 6.94336 3.99121Z" fill="#AD1619"/>
<path d="M9.25098 4.62402L8.60938 5.22754C8.51572 5.40002 8.46779 5.51421 8.46777 5.56152C8.46777 5.63368 8.28038 5.67672 7.91406 5.7207C7.62694 5.75518 7.28789 5.77585 7.01074 5.7793V5.78223C6.99915 5.78223 6.98744 5.78035 6.97559 5.78027C6.96383 5.78035 6.95193 5.78223 6.94043 5.78223V5.7793C6.66348 5.77583 6.32496 5.75513 6.03809 5.7207C5.67167 5.67671 5.4834 5.63369 5.4834 5.56152C5.48339 5.55082 5.4804 5.53694 5.47559 5.51953C5.44537 5.47776 5.42344 5.41681 5.40723 5.35742C5.38855 5.3191 5.36846 5.27485 5.34277 5.22754L4.70117 4.62402L4.74902 4.57324L5.38965 5.17578C5.51126 5.14309 6.17211 4.97503 6.91016 4.9668V4.96582H6.96582V4.9668C7.78327 4.97597 8.50586 5.18164 8.50586 5.18164C8.5053 5.18631 8.49296 5.26298 8.4707 5.34766C8.49259 5.30154 8.51775 5.24831 8.5498 5.18945L8.55664 5.18066L9.20312 4.57324L9.25098 4.62402ZM6.9375 5.41309C6.75462 5.42473 5.74567 5.49105 5.5918 5.5625C5.58913 5.56375 5.58562 5.56347 5.58301 5.56445C5.60567 5.57289 5.63664 5.58286 5.67578 5.5918C5.76579 5.61233 5.89408 5.63314 6.0459 5.65137C6.34242 5.68697 6.69523 5.70811 6.97559 5.70996C7.25592 5.70813 7.60864 5.68697 7.90527 5.65137C8.05703 5.63315 8.18536 5.61232 8.27539 5.5918C8.3212 5.58135 8.35683 5.57122 8.37988 5.56152C8.38811 5.55806 8.39435 5.55444 8.39844 5.55176C8.39932 5.53926 8.40213 5.52501 8.40625 5.50879C8.37432 5.55812 8.33626 5.58687 8.28418 5.5625C8.13112 5.49091 7.11883 5.42462 6.9375 5.41309Z" fill="#C88A02"/>
<path fill-rule="evenodd" clip-rule="evenodd" d="M6.94535 3.34187C7.06133 3.34187 7.15535 3.24785 7.15535 3.13187C7.15535 3.0159 7.06133 2.92188 6.94535 2.92188C6.82937 2.92188 6.73535 3.0159 6.73535 3.13187C6.73535 3.24785 6.82937 3.34187 6.94535 3.34187Z" fill="#005BBF"/>
<path d="M7.01367 2.63965H7.1084V2.78516H7.01367V3.07715H7.1084V3.22266H6.77051V3.07715H6.86816V2.78516H6.77051V2.63965H6.86816V2.54785H7.01367V2.63965Z" fill="#C88A02"/>
<rect x="6.84082" y="3.33984" width="0.28" height="0.91" fill="#C88A02"/>
<path d="M4.81811 4.56057L4.43359 4.54611C4.61501 3.49761 5.50849 2.98389 6.93626 2.98389C8.36587 2.98389 9.2562 3.49984 9.42398 4.55223L8.90393 4.60678C8.82228 4.09465 7.96449 3.63119 6.94377 3.63119C5.92121 3.63119 4.9074 4.04454 4.81811 4.56057Z" fill="#C88A02"/>
<path opacity="0.3" fill-rule="evenodd" clip-rule="evenodd" d="M4.66992 5.79004H9.21992V9.87806C9.21992 9.87806 8.88194 11.25 6.94492 11.25C5.00791 11.25 4.66992 9.84188 4.66992 9.84188V5.79004Z" fill="#E1E5E8"/>
<mask id="mask4_13_5307" style="mask-type:luminance" maskUnits="userSpaceOnUse" x="4" y="5" width="6" height="7">
<path fill-rule="evenodd" clip-rule="evenodd" d="M4.66992 5.79004H9.21992V9.87806C9.21992 9.87806 8.88194 11.25 6.94492 11.25C5.00791 11.25 4.66992 9.84188 4.66992 9.84188V5.79004Z" fill="white"/>
</mask>
<g mask="url(#mask4_13_5307)">
<rect x="4.66992" y="8.31006" width="2.31" height="2.73" fill="#FFC034"/>
<rect x="4.66992" y="5.71973" width="2.31" height="2.66" fill="#AD1619"/>
<rect x="6.91016" y="8.23975" width="2.31" height="2.66" fill="#AD1619"/>
<rect x="6.91016" y="5.79004" width="2.45" height="2.59" fill="#F1F9FF"/>
<path fill-rule="evenodd" clip-rule="evenodd" d="M8.42672 10.9017C8.42672 10.9017 6.9441 11.0182 6.9441 10.062C6.9441 10.062 6.92996 10.9017 5.38184 10.9017V11.6566H8.42672V10.9017Z" fill="#F1F9FF"/>
<path fill-rule="evenodd" clip-rule="evenodd" d="M6.94492 8.87C7.23487 8.87 7.46992 8.61928 7.46992 8.31C7.46992 8.00072 7.23487 7.75 6.94492 7.75C6.65497 7.75 6.41992 8.00072 6.41992 8.31C6.41992 8.61928 6.65497 8.87 6.94492 8.87Z" fill="#005BBF" stroke="#AD1619" stroke-width="0.583333"/>
</g>
<path fill-rule="evenodd" clip-rule="evenodd" d="M5.625 7.5C5.97018 7.5 6.25 7.22018 6.25 6.875C6.25 6.52982 5.97018 6.25 5.625 6.25C5.27982 6.25 5 6.52982 5 6.875C5 7.22018 5.27982 7.5 5.625 7.5Z" fill="#C88A02"/>
<path fill-rule="evenodd" clip-rule="evenodd" d="M8.125 7.5C8.47018 7.5 8.75 7.22018 8.75 6.875C8.75 6.52982 8.47018 6.25 8.125 6.25C7.77982 6.25 7.5 6.52982 7.5 6.875C7.5 7.22018 7.77982 7.5 8.125 7.5Z" fill="#C37C9C"/>
<path fill-rule="evenodd" clip-rule="evenodd" d="M8.125 10C8.47018 10 8.75 9.72018 8.75 9.375C8.75 9.02982 8.47018 8.75 8.125 8.75C7.77982 8.75 7.5 9.02982 7.5 9.375C7.5 9.72018 7.77982 10 8.125 10Z" fill="#FFC034"/>
<path d="M5.625 10C5.97018 10 6.25 9.72018 6.25 9.375C6.25 9.02982 5.97018 8.75 5.625 8.75C5.27982 8.75 5 9.02982 5 9.375C5 9.72018 5.27982 10 5.625 10Z" fill="#AD1619"/>
</g>
</g>
</svg>
