<svg width="40" height="35" viewBox="0 0 40 35" fill="none" xmlns="http://www.w3.org/2000/svg">
<mask id="mask0_13_5288" style="mask-type:luminance" maskUnits="userSpaceOnUse" x="10" y="10" width="20" height="15">
<rect x="10" y="10" width="20" height="15" fill="white"/>
</mask>
<g mask="url(#mask0_13_5288)">
<path fill-rule="evenodd" clip-rule="evenodd" d="M10 10H30V25H10V10Z" fill="#E31D1C"/>
<path d="M30 23.75V25H10V23.75H30ZM30 22.5H10V21.25H30V22.5ZM30 20H10V18.75H30V20ZM30 17.5H10V16.25H30V17.5ZM30 15H10V13.75H30V15ZM30 12.5H10V11.25H30V12.5Z" fill="#F7FCFF"/>
<rect x="10" y="10" width="11.25" height="8.75" fill="#2E42A5"/>
<path d="M19.7637 11.376H20.4189L19.9043 11.8965L20.1035 12.7168L19.4619 12.2559L18.9307 12.626H19.1689L18.6543 13.1465L18.8311 13.876H19.2031L19.4609 13.2061L19.7637 13.876H20.4189L19.9043 14.3965L20.1035 15.2168L19.4619 14.7559L18.9307 15.126H19.1689L18.6543 15.6465L18.8311 16.376H19.2031L19.4609 15.7061L19.7637 16.376H20.4189L19.9043 16.8965L20.1035 17.7168L19.4619 17.2559L18.7998 17.7168L19.0234 16.8965L18.4355 16.376H18.7275L18.2119 16.0059L17.6807 16.376H17.9189L17.4043 16.8965L17.6035 17.7168L16.9619 17.2559L16.2998 17.7168L16.5234 16.8965L15.9355 16.376H16.2275L15.7119 16.0059L15.1807 16.376H15.4189L14.9043 16.8965L15.1035 17.7168L14.4619 17.2559L13.7998 17.7168L14.0234 16.8965L13.4355 16.376H13.7275L13.2119 16.0059L12.6807 16.376H12.9189L12.4043 16.8965L12.6035 17.7168L11.9619 17.2559L11.2998 17.7168L11.5234 16.8965L10.9355 16.376H11.7031L11.9609 15.7061L12.2637 16.376H12.5742L12.7734 15.6465L12.1855 15.126H12.4775L11.9619 14.7559L11.2998 15.2168L11.5234 14.3965L10.9355 13.876H11.7031L11.9609 13.2061L12.2637 13.876H12.5742L12.7734 13.1465L12.1855 12.626H12.4775L11.9619 12.2559L11.2998 12.7168L11.5234 11.8965L10.9355 11.376H11.7031L11.9609 10.7061L12.2637 11.376H12.9189L12.4043 11.8965L12.5811 12.626H12.9531L13.2109 11.9561L13.5137 12.626H13.8242L14.0234 11.8965L13.4355 11.376H14.2031L14.4609 10.7061L14.7637 11.376H15.4189L14.9043 11.8965L15.0811 12.626H15.4531L15.7109 11.9561L16.0137 12.626H16.3242L16.5234 11.8965L15.9355 11.376H16.7031L16.9609 10.7061L17.2637 11.376H17.9189L17.4043 11.8965L17.5811 12.626H17.9531L18.2109 11.9561L18.5137 12.626H18.8242L19.0234 11.8965L18.4355 11.376H19.2031L19.4609 10.7061L19.7637 11.376ZM16.4307 15.126H16.6689L16.1543 15.6465L16.3311 16.376H16.7031L16.9609 15.7061L17.2637 16.376H17.5742L17.7734 15.6465L17.1855 15.126H17.4775L16.9619 14.7559L16.4307 15.126ZM13.9307 15.126H14.1689L13.6543 15.6465L13.8311 16.376H14.2031L14.4609 15.7061L14.7637 16.376H15.0742L15.2734 15.6465L14.6855 15.126H14.9775L14.4619 14.7559L13.9307 15.126ZM17.6807 13.876H17.9189L17.4043 14.3965L17.5811 15.126H17.9531L18.2109 14.4561L18.5137 15.126H18.8242L19.0234 14.3965L18.4355 13.876H18.7275L18.2119 13.5059L17.6807 13.876ZM12.6807 13.876H12.9189L12.4043 14.3965L12.5811 15.126H12.9531L13.2109 14.4561L13.5137 15.126H13.8242L14.0234 14.3965L13.4355 13.876H13.7275L13.2119 13.5059L12.6807 13.876ZM15.1807 13.876H15.4189L14.9043 14.3965L15.0811 15.126H15.4531L15.7109 14.4561L16.0137 15.126H16.3242L16.5234 14.3965L15.9355 13.876H16.2275L15.7119 13.5059L15.1807 13.876ZM13.9307 12.626H14.1689L13.6543 13.1465L13.8311 13.876H14.2031L14.4609 13.2061L14.7637 13.876H15.0742L15.2734 13.1465L14.6855 12.626H14.9775L14.4619 12.2559L13.9307 12.626ZM16.4307 12.626H16.6689L16.1543 13.1465L16.3311 13.876H16.7031L16.9609 13.2061L17.2637 13.876H17.5742L17.7734 13.1465L17.1855 12.626H17.4775L16.9619 12.2559L16.4307 12.626Z" fill="#F7FCFF"/>
</g>
</svg>
