<svg width="19" height="20" viewBox="0 0 19 20" fill="none" xmlns="http://www.w3.org/2000/svg">
<path d="M18.2006 8.04897L10.7006 0.548975C10.349 0.197466 9.87219 0 9.37501 0C8.87783 0 8.401 0.197466 8.04938 0.548975L0.549385 8.04897C0.374566 8.22272 0.235985 8.42945 0.141679 8.65717C0.0473723 8.88489 -0.00078157 9.12906 9.59293e-06 9.37554V18.3755C9.59293e-06 18.6739 0.118536 18.9601 0.329515 19.171C0.540493 19.382 0.826641 19.5005 1.12501 19.5005H7.12501C7.42338 19.5005 7.70953 19.382 7.9205 19.171C8.13148 18.9601 8.25001 18.6739 8.25001 18.3755V13.5005H10.5V18.3755C10.5 18.6739 10.6185 18.9601 10.8295 19.171C11.0405 19.382 11.3266 19.5005 11.625 19.5005H17.625C17.9234 19.5005 18.2095 19.382 18.4205 19.171C18.6315 18.9601 18.75 18.6739 18.75 18.3755V9.37554C18.7508 9.12906 18.7026 8.88489 18.6083 8.65717C18.514 8.42945 18.3755 8.22272 18.2006 8.04897ZM16.5 17.2505H12.75V12.3755C12.75 12.0772 12.6315 11.791 12.4205 11.58C12.2095 11.3691 11.9234 11.2505 11.625 11.2505H7.12501C6.82664 11.2505 6.54049 11.3691 6.32951 11.58C6.11854 11.791 6.00001 12.0772 6.00001 12.3755V17.2505H2.25001V9.53022L9.37501 2.40522L16.5 9.53022V17.2505Z" fill="black"/>
</svg>
