<svg width="22" height="19" viewBox="0 0 22 19" fill="none" xmlns="http://www.w3.org/2000/svg">
<path d="M20.625 2.11635e-07H13.875C13.3127 -0.000180173 12.7564 0.114953 12.2404 0.338284C11.7244 0.561615 11.2597 0.888399 10.875 1.29844C10.4903 0.888399 10.0256 0.561615 9.50958 0.338284C8.99358 0.114953 8.43726 -0.000180173 7.875 2.11635e-07H1.125C0.826631 2.11635e-07 0.540483 0.118527 0.329505 0.329505C0.118526 0.540483 0 0.826632 0 1.125V14.625C0 14.9234 0.118526 15.2095 0.329505 15.4205C0.540483 15.6315 0.826631 15.75 1.125 15.75H7.875C8.37228 15.75 8.84919 15.9475 9.20082 16.2992C9.55246 16.6508 9.75 17.1277 9.75 17.625C9.75 17.9234 9.86853 18.2095 10.0795 18.4205C10.2905 18.6315 10.5766 18.75 10.875 18.75C11.1734 18.75 11.4595 18.6315 11.6705 18.4205C11.8815 18.2095 12 17.9234 12 17.625C12 17.1277 12.1975 16.6508 12.5492 16.2992C12.9008 15.9475 13.3777 15.75 13.875 15.75H20.625C20.9234 15.75 21.2095 15.6315 21.4205 15.4205C21.6315 15.2095 21.75 14.9234 21.75 14.625V1.125C21.75 0.826632 21.6315 0.540483 21.4205 0.329505C21.2095 0.118527 20.9234 2.11635e-07 20.625 2.11635e-07ZM7.875 13.5H2.25V2.25H7.875C8.37228 2.25 8.84919 2.44754 9.20082 2.79918C9.55246 3.15081 9.75 3.62772 9.75 4.125V13.9509C9.16967 13.6539 8.52694 13.4993 7.875 13.5ZM19.5 13.5H13.875C13.2229 13.4996 12.5801 13.6548 12 13.9528V4.125C12 3.62772 12.1975 3.15081 12.5492 2.79918C12.9008 2.44754 13.3777 2.25 13.875 2.25H19.5V13.5Z" fill="#595959"/>
</svg>
