<svg width="21" height="21" viewBox="0 0 21 21" fill="none" xmlns="http://www.w3.org/2000/svg">
<path d="M10.125 0C8.12247 0 6.1649 0.593821 4.49986 1.70637C2.83481 2.81892 1.53706 4.40023 0.770724 6.25033C0.00438702 8.10043 -0.196122 10.1362 0.194554 12.1003C0.585229 14.0643 1.54954 15.8685 2.96555 17.2845C4.38156 18.7005 6.18566 19.6648 8.14971 20.0555C10.1138 20.4461 12.1496 20.2456 13.9997 19.4793C15.8498 18.7129 17.4311 17.4152 18.5436 15.7501C19.6562 14.0851 20.25 12.1275 20.25 10.125C20.247 7.4406 19.1793 4.86699 17.2812 2.96883C15.383 1.07067 12.8094 0.00297771 10.125 0ZM10.125 18C8.56748 18 7.04493 17.5381 5.74989 16.6728C4.45485 15.8075 3.44549 14.5776 2.84945 13.1386C2.25341 11.6997 2.09746 10.1163 2.40132 8.58866C2.70518 7.06106 3.4552 5.65787 4.55654 4.55653C5.65788 3.4552 7.06107 2.70517 8.58867 2.40132C10.1163 2.09746 11.6997 2.25341 13.1386 2.84945C14.5776 3.44549 15.8075 4.45485 16.6728 5.74988C17.5381 7.04492 18 8.56747 18 10.125C17.9978 12.2129 17.1674 14.2146 15.691 15.691C14.2146 17.1674 12.2129 17.9978 10.125 18ZM13.4316 5.34375L8.18157 7.59375C7.91619 7.70754 7.70473 7.919 7.59094 8.18438L5.34094 13.4344C5.25396 13.6408 5.23059 13.8686 5.27384 14.0884C5.31709 14.3082 5.42498 14.5101 5.5837 14.6682C5.74242 14.8263 5.94472 14.9334 6.16471 14.9758C6.38469 15.0183 6.61232 14.994 6.81844 14.9062L12.0684 12.6562C12.3338 12.5425 12.5453 12.331 12.6591 12.0656L14.9091 6.81562C14.9961 6.60917 15.0194 6.38145 14.9762 6.16163C14.9329 5.94181 14.825 5.73991 14.6663 5.5818C14.5076 5.42369 14.3053 5.31656 14.0853 5.27415C13.8653 5.23174 13.6377 5.25598 13.4316 5.34375ZM10.7681 10.7709L8.51813 11.7356L9.48282 9.48563L11.7328 8.52094L10.7681 10.7709Z" fill="#595959"/>
</svg>
