<svg width="22" height="23" viewBox="0 0 22 23" fill="none" xmlns="http://www.w3.org/2000/svg">
<path d="M21.2021 16.2365L17.8712 12.9055L14.4802 1.71648C14.3726 1.35993 14.1839 1.03311 13.929 0.761597C13.674 0.490085 13.3597 0.281245 13.0106 0.151417C12.6616 0.021588 12.2872 -0.0257081 11.9168 0.0132288C11.5464 0.0521657 11.19 0.17628 10.8755 0.37586C10.5611 0.17628 10.2047 0.0521657 9.8343 0.0132288C9.4639 -0.0257081 9.08951 0.021588 8.74042 0.151417C8.39134 0.281245 8.07703 0.490085 7.82208 0.761597C7.56714 1.03311 7.37847 1.35993 7.27085 1.71648L3.87991 12.9055L0.548975 16.2365C0.197466 16.5881 0 17.0649 0 17.5621C0 18.0593 0.197466 18.5361 0.548975 18.8877L3.61366 21.9524C3.96528 22.3039 4.4421 22.5014 4.93929 22.5014C5.43647 22.5014 5.9133 22.3039 6.26491 21.9524L10.7921 17.4262C10.8212 17.3971 10.8483 17.368 10.8755 17.338C10.9027 17.368 10.9299 17.3971 10.959 17.4262L15.4862 21.9524C15.8378 22.3039 16.3146 22.5014 16.8118 22.5014C17.309 22.5014 17.7858 22.3039 18.1374 21.9524L21.2021 18.8877C21.5536 18.5361 21.7511 18.0593 21.7511 17.5621C21.7511 17.0649 21.5536 16.5881 21.2021 16.2365ZM4.93929 20.0962L2.40804 17.5649L3.43929 16.5337L5.97054 19.0649L4.93929 20.0962ZM9.75054 14.5087C9.75126 14.755 9.70306 14.999 9.60876 15.2266C9.51445 15.4541 9.37591 15.6607 9.20116 15.8343L7.56429 17.4712L5.03304 14.9399L5.67335 14.2996C5.8044 14.169 5.90103 14.008 5.9546 13.8309L9.42335 2.3718C9.43516 2.33373 9.46022 2.30114 9.49397 2.27994C9.52773 2.25874 9.56796 2.25032 9.60739 2.25622C9.64681 2.26211 9.68283 2.28192 9.70891 2.31206C9.735 2.3422 9.74943 2.38069 9.7496 2.42055L9.75054 14.5087ZM14.2037 17.488L12.5499 15.8343C12.3752 15.6607 12.2366 15.4541 12.1423 15.2266C12.048 14.999 11.9998 14.755 12.0005 14.5087V2.41492C12.0007 2.37506 12.0151 2.33658 12.0412 2.30643C12.0673 2.27629 12.1033 2.25648 12.1427 2.25059C12.1822 2.2447 12.2224 2.25312 12.2562 2.27432C12.2899 2.29552 12.315 2.3281 12.3268 2.36617L15.7955 13.8252C15.8491 14.0023 15.9457 14.1634 16.0768 14.294L16.7893 15.0065L14.2037 17.488ZM16.8118 20.0962L15.7946 19.0799L18.3849 16.6012L19.3458 17.5621L16.8118 20.0962Z" fill="#83BF8B"/>
</svg>
